<?xml version="1.0" encoding="utf-8"?>
<svg width="800px" height="800px" viewBox="0 0 24 24" xmlns="http://www.w3.org/2000/svg"><path d="M7 13c1.66 0 3-1.34 3-3S8.66 7 7 7s-3 1.34-3 3 1.34 3 3 3zm0-4c.55 0 1 .45 1 1s-.45 1-1 1-1-.45-1-1 .45-1 1-1zm10 1c1.66 0 3-1.34 3-3s-1.34-3-3-3-3 1.34-3 3 1.34 3 3 3zm0-4c.55 0 1 .45 1 1s-.45 1-1 1-1-.45-1-1 .45-1 1-1zM7 15c-2.33 0-7 1.17-7 3.5V21h14v-2.5c0-2.33-4.67-3.5-7-3.5zm5 4H2v-.5C2.22 17.78 4.76 17 7 17s4.78.78 5 1.5v.5zm5-4c-.29 0-.62.02-.97.05 1.16.84 1.97 1.97 1.97 3.45V21h6v-2.5c0-2.33-4.67-3.5-7-3.5z"/><path fill="none" d="M0 0h24v24H0z"/></svg>
