<?xml version="1.0" encoding="utf-8"?>
<svg width="800px" height="800px" viewBox="0 0 24 24" xmlns="http://www.w3.org/2000/svg"><path d="M12 2C6.48 2 2 6.48 2 12s4.48 10 10 10 10-4.48 10-10S17.52 2 12 2zm0 18c-4.41 0-8-3.59-8-8s3.59-8 8-8 8 3.59 8 8-3.59 8-8 8zm.31-8.86c-1.77-.45-2.34-.94-2.34-1.67 0-.84.79-1.43 2.1-1.43 1.38 0 1.9.66 1.94 1.64h1.71c-.05-1.34-.87-2.57-2.49-2.97V5.5h-2.84v1.24c-1.51.33-2.72 1.3-2.72 2.81 0 1.79 1.49 2.69 3.66 3.21 1.95.46 2.34 1.15 2.34 1.87 0 .53-.39 1.39-2.1 1.39-1.6 0-2.23-.72-2.32-1.64H8.54c.1 1.7 1.36 2.66 2.86 2.97V19.5h2.84v-1.21c1.52-.29 2.72-1.16 2.72-2.74 0-2.22-1.9-2.98-4.65-3.41z"/><path fill="none" d="M0 0h24v24H0z"/></svg>
